<?xml version="1.0" encoding="UTF-8" standalone="no"?>
<!-- Created with Inkscape (http://www.inkscape.org/) -->

<svg
   xmlns:dc="http://purl.org/dc/elements/1.1/"
   xmlns:cc="http://creativecommons.org/ns#"
   xmlns:rdf="http://www.w3.org/1999/02/22-rdf-syntax-ns#"
   xmlns:svg="http://www.w3.org/2000/svg"
   xmlns="http://www.w3.org/2000/svg"
   xmlns:xlink="http://www.w3.org/1999/xlink"
   xmlns:sodipodi="http://sodipodi.sourceforge.net/DTD/sodipodi-0.dtd"
   xmlns:inkscape="http://www.inkscape.org/namespaces/inkscape"
   width="32"
   height="32"
   id="svg2"
   version="1.1"
   inkscape:version="0.48.3.1 r9886">
  <defs
     id="defs4">
    <filter
       color-interpolation-filters="sRGB"
       id="filter4317"
       inkscape:collect="always">
      <feGaussianBlur
         id="feGaussianBlur4319"
         stdDeviation="0.46375"
         inkscape:collect="always" />
    </filter>
    <filter
       color-interpolation-filters="sRGB"
       height="2.5443251"
       y="-0.77216262"
       width="1.2192597"
       x="-0.10962986"
       id="filter4301"
       inkscape:collect="always">
      <feGaussianBlur
         id="feGaussianBlur4303"
         stdDeviation="3.71"
         inkscape:collect="always" />
    </filter>
    <filter
       color-interpolation-filters="sRGB"
       id="filter4295"
       inkscape:collect="always">
      <feGaussianBlur
         id="feGaussianBlur4297"
         stdDeviation="0.76206134"
         inkscape:collect="always" />
    </filter>
    <filter
       color-interpolation-filters="sRGB"
       id="filter4267"
       inkscape:collect="always">
      <feGaussianBlur
         id="feGaussianBlur4269"
         stdDeviation="0.45684045"
         inkscape:collect="always" />
    </filter>
    <linearGradient
       gradientUnits="userSpaceOnUse"
       y2="546.75873"
       x2="326.15463"
       y1="514.9339"
       x1="290.24548"
       id="linearGradient4171-3"
       xlink:href="#linearGradient4217"
       inkscape:collect="always" />
    <linearGradient
       gradientUnits="userSpaceOnUse"
       y2="580.51892"
       x2="325.50955"
       y1="559.01575"
       x1="290.46054"
       id="linearGradient4171"
       xlink:href="#linearGradient4165"
       inkscape:collect="always" />
    <filter
       color-interpolation-filters="sRGB"
       id="filter4109"
       inkscape:collect="always">
      <feGaussianBlur
         id="feGaussianBlur4111"
         stdDeviation="0.53162285"
         inkscape:collect="always" />
    </filter>
    <clipPath
       id="clipPath4017"
       clipPathUnits="userSpaceOnUse">
      <path
         style="fill:none;stroke:#000000;stroke-width:0.99999994px;stroke-linecap:butt;stroke-linejoin:miter;stroke-opacity:1"
         d="m 345.34375,582.96875 c -1.78919,0.73513 -3.80969,1.32732 -6.09375,1.9375 -7.0477,1.88278 -20.72192,2.4375 -31.09375,2.4375 -10.37183,0 -24.0148,-0.55472 -31.0625,-2.4375 -2.219,-0.5928 -4.21668,-1.17015 -5.96875,-1.875 -0.17196,3.36937 -0.43183,8.48058 -0.34375,12.09375 0.0485,1.9874 4.26363,1.73595 4.1875,4.53125 -0.0761,2.79529 -3.6875,3.41568 -3.6875,4.90625 0.0485,1.9874 4.23238,1.73595 4.15625,4.53125 -0.0761,2.7953 -3.65625,3.41568 -3.65625,4.90625 0.0485,1.9874 4.23238,1.7047 4.15625,4.5 -0.0761,2.79529 -3.6875,3.41567 -3.6875,4.90625 0.0485,1.9874 4.23238,1.73595 4.15625,4.53125 -0.0761,2.79529 -3.65625,3.41567 -3.65625,4.90625 0,6.10114 9.55757,10.16872 16.34375,14.1875 7.28873,4.31639 15.17283,7.80197 19.0625,7.65625 3.88967,0.14572 11.80502,-3.33986 19.09375,-7.65625 6.78618,-4.01878 16.34375,-8.08636 16.34375,-14.1875 l 0,-2.78125 c 0,-1.49058 -3.6114,-2.11096 -3.6875,-4.90625 -0.0761,-2.7953 4.10775,-2.5126 4.15625,-4.5 0,-1.49058 -3.58015,-2.14221 -3.65625,-4.9375 -0.0761,-2.7953 4.10775,-2.5126 4.15625,-4.5 0,-1.49057 -3.58015,-2.11095 -3.65625,-4.90625 -0.0761,-2.7953 4.10775,-2.54385 4.15625,-4.53125 0,-1.49057 -3.6114,-2.11096 -3.6875,-4.90625 -0.0761,-2.7953 4.10775,-2.5126 4.15625,-4.5 0.0607,-2.48864 -0.0547,-6.21569 -0.1875,-9.40625 z"
         id="path4019"
         inkscape:connector-curvature="0" />
    </clipPath>
    <clipPath
       id="clipPath4013"
       clipPathUnits="userSpaceOnUse">
      <path
         style="fill:none;stroke:#000000;stroke-width:0.99999994px;stroke-linecap:butt;stroke-linejoin:miter;stroke-opacity:1"
         d="m 345.34375,582.96875 c -1.78919,0.73513 -3.80969,1.32732 -6.09375,1.9375 -7.0477,1.88278 -20.72192,2.4375 -31.09375,2.4375 -10.37183,0 -24.0148,-0.55472 -31.0625,-2.4375 -2.219,-0.5928 -4.21668,-1.17015 -5.96875,-1.875 -0.17196,3.36937 -0.43183,8.48058 -0.34375,12.09375 0.0485,1.9874 4.26363,1.73595 4.1875,4.53125 -0.0761,2.79529 -3.6875,3.41568 -3.6875,4.90625 0.0485,1.9874 4.23238,1.73595 4.15625,4.53125 -0.0761,2.7953 -3.65625,3.41568 -3.65625,4.90625 0.0485,1.9874 4.23238,1.7047 4.15625,4.5 -0.0761,2.79529 -3.6875,3.41567 -3.6875,4.90625 0.0485,1.9874 4.23238,1.73595 4.15625,4.53125 -0.0761,2.79529 -3.65625,3.41567 -3.65625,4.90625 0,6.10114 9.55757,10.16872 16.34375,14.1875 7.28873,4.31639 15.17283,7.80197 19.0625,7.65625 3.88967,0.14572 11.80502,-3.33986 19.09375,-7.65625 6.78618,-4.01878 16.34375,-8.08636 16.34375,-14.1875 l 0,-2.78125 c 0,-1.49058 -3.6114,-2.11096 -3.6875,-4.90625 -0.0761,-2.7953 4.10775,-2.5126 4.15625,-4.5 0,-1.49058 -3.58015,-2.14221 -3.65625,-4.9375 -0.0761,-2.7953 4.10775,-2.5126 4.15625,-4.5 0,-1.49057 -3.58015,-2.11095 -3.65625,-4.90625 -0.0761,-2.7953 4.10775,-2.54385 4.15625,-4.53125 0,-1.49057 -3.6114,-2.11096 -3.6875,-4.90625 -0.0761,-2.7953 4.10775,-2.5126 4.15625,-4.5 0.0607,-2.48864 -0.0547,-6.21569 -0.1875,-9.40625 z"
         id="path4015"
         inkscape:connector-curvature="0" />
    </clipPath>
    <clipPath
       id="clipPath4009"
       clipPathUnits="userSpaceOnUse">
      <path
         style="fill:none;stroke:#000000;stroke-width:0.99999994px;stroke-linecap:butt;stroke-linejoin:miter;stroke-opacity:1"
         d="m 345.34375,582.96875 c -1.78919,0.73513 -3.80969,1.32732 -6.09375,1.9375 -7.0477,1.88278 -20.72192,2.4375 -31.09375,2.4375 -10.37183,0 -24.0148,-0.55472 -31.0625,-2.4375 -2.219,-0.5928 -4.21668,-1.17015 -5.96875,-1.875 -0.17196,3.36937 -0.43183,8.48058 -0.34375,12.09375 0.0485,1.9874 4.26363,1.73595 4.1875,4.53125 -0.0761,2.79529 -3.6875,3.41568 -3.6875,4.90625 0.0485,1.9874 4.23238,1.73595 4.15625,4.53125 -0.0761,2.7953 -3.65625,3.41568 -3.65625,4.90625 0.0485,1.9874 4.23238,1.7047 4.15625,4.5 -0.0761,2.79529 -3.6875,3.41567 -3.6875,4.90625 0.0485,1.9874 4.23238,1.73595 4.15625,4.53125 -0.0761,2.79529 -3.65625,3.41567 -3.65625,4.90625 0,6.10114 9.55757,10.16872 16.34375,14.1875 7.28873,4.31639 15.17283,7.80197 19.0625,7.65625 3.88967,0.14572 11.80502,-3.33986 19.09375,-7.65625 6.78618,-4.01878 16.34375,-8.08636 16.34375,-14.1875 l 0,-2.78125 c 0,-1.49058 -3.6114,-2.11096 -3.6875,-4.90625 -0.0761,-2.7953 4.10775,-2.5126 4.15625,-4.5 0,-1.49058 -3.58015,-2.14221 -3.65625,-4.9375 -0.0761,-2.7953 4.10775,-2.5126 4.15625,-4.5 0,-1.49057 -3.58015,-2.11095 -3.65625,-4.90625 -0.0761,-2.7953 4.10775,-2.54385 4.15625,-4.53125 0,-1.49057 -3.6114,-2.11096 -3.6875,-4.90625 -0.0761,-2.7953 4.10775,-2.5126 4.15625,-4.5 0.0607,-2.48864 -0.0547,-6.21569 -0.1875,-9.40625 z"
         id="path4011"
         inkscape:connector-curvature="0" />
    </clipPath>
    <clipPath
       id="clipPath4005"
       clipPathUnits="userSpaceOnUse">
      <path
         style="fill:none;stroke:#000000;stroke-width:0.99999994px;stroke-linecap:butt;stroke-linejoin:miter;stroke-opacity:1"
         d="m 345.34375,582.96875 c -1.78919,0.73513 -3.80969,1.32732 -6.09375,1.9375 -7.0477,1.88278 -20.72192,2.4375 -31.09375,2.4375 -10.37183,0 -24.0148,-0.55472 -31.0625,-2.4375 -2.219,-0.5928 -4.21668,-1.17015 -5.96875,-1.875 -0.17196,3.36937 -0.43183,8.48058 -0.34375,12.09375 0.0485,1.9874 4.26363,1.73595 4.1875,4.53125 -0.0761,2.79529 -3.6875,3.41568 -3.6875,4.90625 0.0485,1.9874 4.23238,1.73595 4.15625,4.53125 -0.0761,2.7953 -3.65625,3.41568 -3.65625,4.90625 0.0485,1.9874 4.23238,1.7047 4.15625,4.5 -0.0761,2.79529 -3.6875,3.41567 -3.6875,4.90625 0.0485,1.9874 4.23238,1.73595 4.15625,4.53125 -0.0761,2.79529 -3.65625,3.41567 -3.65625,4.90625 0,6.10114 9.55757,10.16872 16.34375,14.1875 7.28873,4.31639 15.17283,7.80197 19.0625,7.65625 3.88967,0.14572 11.80502,-3.33986 19.09375,-7.65625 6.78618,-4.01878 16.34375,-8.08636 16.34375,-14.1875 l 0,-2.78125 c 0,-1.49058 -3.6114,-2.11096 -3.6875,-4.90625 -0.0761,-2.7953 4.10775,-2.5126 4.15625,-4.5 0,-1.49058 -3.58015,-2.14221 -3.65625,-4.9375 -0.0761,-2.7953 4.10775,-2.5126 4.15625,-4.5 0,-1.49057 -3.58015,-2.11095 -3.65625,-4.90625 -0.0761,-2.7953 4.10775,-2.54385 4.15625,-4.53125 0,-1.49057 -3.6114,-2.11096 -3.6875,-4.90625 -0.0761,-2.7953 4.10775,-2.5126 4.15625,-4.5 0.0607,-2.48864 -0.0547,-6.21569 -0.1875,-9.40625 z"
         id="path4007"
         inkscape:connector-curvature="0" />
    </clipPath>
    <linearGradient
       gradientTransform="matrix(1,0,0,0.82657046,0,69.92537)"
       gradientUnits="userSpaceOnUse"
       y2="430.28397"
       x2="308.16849"
       y1="380.12772"
       x1="308.16849"
       id="linearGradient3999"
       xlink:href="#linearGradient3993"
       inkscape:collect="always" />
    <linearGradient
       gradientUnits="userSpaceOnUse"
       y2="370.48816"
       x2="308.16849"
       y1="593.57251"
       x1="308.16849"
       id="linearGradient3927"
       xlink:href="#linearGradient3921"
       inkscape:collect="always" />
    <linearGradient
       gradientUnits="userSpaceOnUse"
       y2="587.33856"
       x2="308.16849"
       y1="359.29962"
       x1="308.16849"
       id="linearGradient3919"
       xlink:href="#linearGradient3912"
       inkscape:collect="always" />
    <filter
       color-interpolation-filters="sRGB"
       id="filter3908"
       inkscape:collect="always">
      <feGaussianBlur
         id="feGaussianBlur3910"
         stdDeviation="3.5525232"
         inkscape:collect="always" />
    </filter>
    <filter
       color-interpolation-filters="sRGB"
       id="filter3890"
       inkscape:collect="always">
      <feGaussianBlur
         id="feGaussianBlur3892"
         stdDeviation="2.017949"
         inkscape:collect="always" />
    </filter>
    <linearGradient
       gradientTransform="matrix(1,0,0,1.0672854,1.7255766,-35.777058)"
       gradientUnits="userSpaceOnUse"
       y2="613.10626"
       x2="344.31693"
       y1="613.10626"
       x1="266.95935"
       id="linearGradient4015"
       xlink:href="#linearGradient4009"
       inkscape:collect="always" />
    <linearGradient
       inkscape:collect="always"
       xlink:href="#linearGradient4321"
       id="linearGradient3957"
       gradientUnits="userSpaceOnUse"
       x1="265.1394"
       y1="615.9693"
       x2="347.98077"
       y2="615.9693" />
    <linearGradient
       id="linearGradient3908-7">
      <stop
         id="stop3910-2"
         offset="0"
         style="stop-color:#fcfcfc;stop-opacity:1" />
      <stop
         style="stop-color:#424242;stop-opacity:1;"
         offset="0.6809687"
         id="stop3916-2" />
      <stop
         id="stop3912-9"
         offset="1"
         style="stop-color:#dfdfdf;stop-opacity:1" />
    </linearGradient>
    <linearGradient
       gradientUnits="userSpaceOnUse"
       y2="620.61157"
       x2="347.01205"
       y1="620.61157"
       x1="269.90897"
       id="linearGradient3914-7"
       xlink:href="#linearGradient3908-7"
       inkscape:collect="always" />
    <linearGradient
       id="linearGradient4009">
      <stop
         id="stop4011"
         offset="0"
         style="stop-color:#f6f6f6;stop-opacity:1" />
      <stop
         style="stop-color:#b5b5b5;stop-opacity:1"
         offset="0.37865743"
         id="stop4021" />
      <stop
         style="stop-color:#929292;stop-opacity:1"
         offset="0.64802063"
         id="stop4017" />
      <stop
         id="stop4019"
         offset="0.85197926"
         style="stop-color:#b5b5b5;stop-opacity:1" />
      <stop
         id="stop4013"
         offset="1"
         style="stop-color:#fafafa;stop-opacity:1" />
    </linearGradient>
    <linearGradient
       id="linearGradient3912">
      <stop
         id="stop3914"
         offset="0"
         style="stop-color:#ffff00;stop-opacity:1;" />
      <stop
         id="stop3917"
         offset="1"
         style="stop-color:#ffff00;stop-opacity:0;" />
    </linearGradient>
    <linearGradient
       id="linearGradient3921"
       inkscape:collect="always">
      <stop
         id="stop3923"
         offset="0"
         style="stop-color:#ffffff;stop-opacity:0.49820789" />
      <stop
         id="stop3925"
         offset="1"
         style="stop-color:#ffffff;stop-opacity:0;" />
    </linearGradient>
    <linearGradient
       id="linearGradient3993">
      <stop
         id="stop3995"
         offset="0"
         style="stop-color:#ffffff;stop-opacity:0.51971326" />
      <stop
         id="stop3997"
         offset="1"
         style="stop-color:#ffffff;stop-opacity:0.22352941" />
    </linearGradient>
    <linearGradient
       id="linearGradient4165"
       inkscape:collect="always">
      <stop
         id="stop4167"
         offset="0"
         style="stop-color:#000000;stop-opacity:0.03942652" />
      <stop
         id="stop4169"
         offset="1"
         style="stop-color:#000000;stop-opacity:0.17204301" />
    </linearGradient>
    <linearGradient
       inkscape:collect="always"
       id="linearGradient4217">
      <stop
         style="stop-color:#000000;stop-opacity:0.07885305"
         offset="0"
         id="stop4219" />
      <stop
         style="stop-color:#000000;stop-opacity:0.1827957"
         offset="1"
         id="stop4221" />
    </linearGradient>
    <linearGradient
       id="linearGradient4321">
      <stop
         style="stop-color:#dfdfdf;stop-opacity:1"
         offset="0"
         id="stop4323" />
      <stop
         id="stop4325"
         offset="0.18827453"
         style="stop-color:#d2d2d2;stop-opacity:1" />
      <stop
         id="stop4327"
         offset="0.37654907"
         style="stop-color:#fcfcfc;stop-opacity:1" />
      <stop
         id="stop4329"
         offset="0.68365365"
         style="stop-color:#656565;stop-opacity:1" />
      <stop
         style="stop-color:#ffffff;stop-opacity:1"
         offset="1"
         id="stop4331" />
    </linearGradient>
    <linearGradient
       inkscape:collect="always"
       xlink:href="#linearGradient4009"
       id="linearGradient4042"
       gradientUnits="userSpaceOnUse"
       gradientTransform="matrix(1,0,0,1.0672854,1.7255766,-35.777058)"
       x1="266.95935"
       y1="613.10626"
       x2="344.31693"
       y2="613.10626" />
    <linearGradient
       inkscape:collect="always"
       xlink:href="#linearGradient4321"
       id="linearGradient4044"
       gradientUnits="userSpaceOnUse"
       x1="265.1394"
       y1="615.9693"
       x2="347.98077"
       y2="615.9693" />
    <linearGradient
       inkscape:collect="always"
       xlink:href="#linearGradient3908-7"
       id="linearGradient4046"
       gradientUnits="userSpaceOnUse"
       x1="269.90897"
       y1="620.61157"
       x2="347.01205"
       y2="620.61157" />
    <linearGradient
       inkscape:collect="always"
       xlink:href="#linearGradient3921"
       id="linearGradient4048"
       gradientUnits="userSpaceOnUse"
       x1="308.16849"
       y1="593.57251"
       x2="308.16849"
       y2="370.48816" />
    <linearGradient
       inkscape:collect="always"
       xlink:href="#linearGradient3912"
       id="linearGradient4050"
       gradientUnits="userSpaceOnUse"
       x1="308.16849"
       y1="359.29962"
       x2="308.16849"
       y2="587.33856" />
    <linearGradient
       inkscape:collect="always"
       xlink:href="#linearGradient3993"
       id="linearGradient4052"
       gradientUnits="userSpaceOnUse"
       gradientTransform="matrix(1,0,0,0.82657046,0,69.92537)"
       x1="308.16849"
       y1="380.12772"
       x2="308.16849"
       y2="430.28397" />
    <linearGradient
       inkscape:collect="always"
       xlink:href="#linearGradient4217"
       id="linearGradient4054"
       gradientUnits="userSpaceOnUse"
       x1="290.24548"
       y1="514.9339"
       x2="326.15463"
       y2="546.75873" />
    <linearGradient
       inkscape:collect="always"
       xlink:href="#linearGradient4165"
       id="linearGradient4056"
       gradientUnits="userSpaceOnUse"
       x1="290.46054"
       y1="559.01575"
       x2="325.50955"
       y2="580.51892" />
    <linearGradient
       inkscape:collect="always"
       xlink:href="#linearGradient4217"
       id="linearGradient4075"
       gradientUnits="userSpaceOnUse"
       x1="290.24548"
       y1="514.9339"
       x2="326.15463"
       y2="546.75873" />
    <linearGradient
       inkscape:collect="always"
       xlink:href="#linearGradient4165"
       id="linearGradient4077"
       gradientUnits="userSpaceOnUse"
       x1="290.46054"
       y1="559.01575"
       x2="325.50955"
       y2="580.51892" />
    <linearGradient
       inkscape:collect="always"
       xlink:href="#linearGradient3921"
       id="linearGradient4084"
       gradientUnits="userSpaceOnUse"
       x1="308.16849"
       y1="593.57251"
       x2="308.16849"
       y2="370.48816" />
    <linearGradient
       inkscape:collect="always"
       xlink:href="#linearGradient3912"
       id="linearGradient4086"
       gradientUnits="userSpaceOnUse"
       x1="308.16849"
       y1="359.29962"
       x2="308.16849"
       y2="587.33856" />
    <linearGradient
       inkscape:collect="always"
       xlink:href="#linearGradient3993"
       id="linearGradient4088"
       gradientUnits="userSpaceOnUse"
       gradientTransform="matrix(1,0,0,0.82657046,0,69.92537)"
       x1="308.16849"
       y1="380.12772"
       x2="308.16849"
       y2="430.28397" />
    <linearGradient
       inkscape:collect="always"
       xlink:href="#linearGradient3993"
       id="linearGradient4091"
       gradientUnits="userSpaceOnUse"
       gradientTransform="matrix(0.08474464,0,0,0.07004742,-77.370958,973.27003)"
       x1="308.16849"
       y1="380.12772"
       x2="308.16849"
       y2="430.28397" />
    <linearGradient
       inkscape:collect="always"
       xlink:href="#linearGradient4009"
       id="linearGradient4097"
       gradientUnits="userSpaceOnUse"
       gradientTransform="matrix(1,0,0,1.0672854,1.7255766,-35.777058)"
       x1="266.95935"
       y1="613.10626"
       x2="344.31693"
       y2="613.10626" />
    <linearGradient
       inkscape:collect="always"
       xlink:href="#linearGradient4321"
       id="linearGradient4099"
       gradientUnits="userSpaceOnUse"
       x1="265.1394"
       y1="615.9693"
       x2="347.98077"
       y2="615.9693" />
    <linearGradient
       inkscape:collect="always"
       xlink:href="#linearGradient3908-7"
       id="linearGradient4101"
       gradientUnits="userSpaceOnUse"
       x1="269.90897"
       y1="620.61157"
       x2="347.01205"
       y2="620.61157" />
    <linearGradient
       inkscape:collect="always"
       xlink:href="#linearGradient4009"
       id="linearGradient4118"
       gradientUnits="userSpaceOnUse"
       gradientTransform="matrix(0.08474464,0,0,0.09044672,-77.224725,-56.134624)"
       x1="266.95935"
       y1="613.10626"
       x2="344.31693"
       y2="613.10626" />
    <linearGradient
       inkscape:collect="always"
       xlink:href="#linearGradient4009"
       id="linearGradient4121"
       gradientUnits="userSpaceOnUse"
       gradientTransform="matrix(0.08474464,0,0,0.09044672,-77.224725,-56.134624)"
       x1="266.95935"
       y1="613.10626"
       x2="344.31693"
       y2="613.10626" />
    <linearGradient
       inkscape:collect="always"
       xlink:href="#linearGradient4009"
       id="linearGradient4126"
       gradientUnits="userSpaceOnUse"
       gradientTransform="matrix(1,0,0,1.0672854,1.7255766,-35.777058)"
       x1="266.95935"
       y1="613.10626"
       x2="344.31693"
       y2="613.10626" />
    <linearGradient
       inkscape:collect="always"
       xlink:href="#linearGradient4321"
       id="linearGradient4128"
       gradientUnits="userSpaceOnUse"
       x1="265.1394"
       y1="615.9693"
       x2="347.98077"
       y2="615.9693" />
    <linearGradient
       inkscape:collect="always"
       xlink:href="#linearGradient3908-7"
       id="linearGradient4130"
       gradientUnits="userSpaceOnUse"
       x1="269.90897"
       y1="620.61157"
       x2="347.01205"
       y2="620.61157" />
    <linearGradient
       inkscape:collect="always"
       xlink:href="#linearGradient3921"
       id="linearGradient4132"
       gradientUnits="userSpaceOnUse"
       x1="308.16849"
       y1="593.57251"
       x2="308.16849"
       y2="370.48816" />
    <linearGradient
       inkscape:collect="always"
       xlink:href="#linearGradient3912"
       id="linearGradient4134"
       gradientUnits="userSpaceOnUse"
       x1="308.16849"
       y1="359.29962"
       x2="308.16849"
       y2="587.33856" />
    <linearGradient
       inkscape:collect="always"
       xlink:href="#linearGradient3993"
       id="linearGradient4136"
       gradientUnits="userSpaceOnUse"
       gradientTransform="matrix(1,0,0,0.82657046,0,69.92537)"
       x1="308.16849"
       y1="380.12772"
       x2="308.16849"
       y2="430.28397" />
    <linearGradient
       inkscape:collect="always"
       xlink:href="#linearGradient4217"
       id="linearGradient4138"
       gradientUnits="userSpaceOnUse"
       x1="290.24548"
       y1="514.9339"
       x2="326.15463"
       y2="546.75873" />
    <linearGradient
       inkscape:collect="always"
       xlink:href="#linearGradient4165"
       id="linearGradient4140"
       gradientUnits="userSpaceOnUse"
       x1="290.46054"
       y1="559.01575"
       x2="325.50955"
       y2="580.51892" />
  </defs>
  <sodipodi:namedview
     id="base"
     pagecolor="#ffffff"
     bordercolor="#666666"
     borderopacity="1.0"
     inkscape:pageopacity="0.0"
     inkscape:pageshadow="2"
     inkscape:zoom="19.34375"
     inkscape:cx="16"
     inkscape:cy="16"
     inkscape:document-units="px"
     inkscape:current-layer="layer1"
     showgrid="false"
     inkscape:window-width="1370"
     inkscape:window-height="789"
     inkscape:window-x="0"
     inkscape:window-y="24"
     inkscape:window-maximized="1">
    <inkscape:grid
       type="xygrid"
       id="grid2998"
       empspacing="5"
       visible="true"
       enabled="true"
       snapvisiblegridlinesonly="true" />
  </sodipodi:namedview>
  <metadata
     id="metadata7">
    <rdf:RDF>
      <cc:Work
         rdf:about="">
        <dc:format>image/svg+xml</dc:format>
        <dc:type
           rdf:resource="http://purl.org/dc/dcmitype/StillImage" />
        <dc:title></dc:title>
      </cc:Work>
    </rdf:RDF>
  </metadata>
  <g
     inkscape:groupmode="layer"
     id="layer2"
     inkscape:label="Fond" />
  <g
     inkscape:label="Calque 1"
     inkscape:groupmode="layer"
     id="layer1"
     transform="translate(0,-1020.3622)">
    <g
       style="enable-background:new"
       id="g3987"
       transform="matrix(0.11299286,0,0,0.11299286,5.5183552,1020.3622)">
      <g
         transform="translate(-215.40472,-370.48817)"
         style="display:inline"
         inkscape:label="Douille"
         id="layer3">
        <rect
           transform="translate(0,-1)"
           clip-path="url(#clipPath4017)"
           y="577.13458"
           x="255.81821"
           height="82.895477"
           width="104.70058"
           id="rect4007"
           style="color:#000000;fill:url(#linearGradient4126);fill-opacity:1;fill-rule:nonzero;stroke:none;stroke-width:3;marker:none;visibility:visible;display:inline;overflow:visible;enable-background:accumulate" />
        <path
           clip-path="url(#clipPath4013)"
           inkscape:connector-curvature="0"
           id="path3065"
           d="m 355.21875,595.21875 c -31.69106,3.97713 -63.08323,5.40497 -94.09375,3.9375 l 0,37 c 31.01052,1.46747 62.40269,0.0396 94.09375,-3.9375 l 0,-37 z"
           style="fill:url(#linearGradient4128);fill-opacity:1;stroke:none;display:inline"
           transform="translate(0,-0.99999738)" />
        <path
           clip-path="url(#clipPath4009)"
           inkscape:connector-curvature="0"
           id="path3906"
           d="m 355.03125,603 c -31.61321,3.96736 -62.89505,5.36932 -93.8125,3.90625 l -0.15625,3 c 31.10359,1.47187 62.57484,0.0494 94.34375,-3.9375 L 355.03125,603 z m 0,9.25 c -31.61321,3.96736 -62.89505,5.36932 -93.8125,3.90625 l -0.15625,3 c 31.10359,1.47187 62.57484,0.0494 94.34375,-3.9375 l -0.375,-2.96875 z m 0,9.25 c -31.61321,3.96736 -62.89505,5.36932 -93.8125,3.90625 l -0.15625,3 c 31.10359,1.47187 62.57484,0.0494 94.34375,-3.9375 l -0.375,-2.96875 z m 0,9.25 c -31.61321,3.96736 -62.89505,5.36932 -93.8125,3.90625 l -0.15625,3 c 31.10359,1.47187 62.57484,0.0494 94.34375,-3.9375 l -0.375,-2.96875 z"
           style="font-size:medium;font-style:normal;font-variant:normal;font-weight:normal;font-stretch:normal;text-indent:0;text-align:start;text-decoration:none;line-height:normal;letter-spacing:normal;word-spacing:normal;text-transform:none;direction:ltr;block-progression:tb;writing-mode:lr-tb;text-anchor:start;baseline-shift:baseline;color:#000000;fill:url(#linearGradient4130);fill-opacity:1;stroke:none;stroke-width:3;marker:none;visibility:visible;display:inline;overflow:visible;enable-background:accumulate;font-family:Sans;-inkscape-font-specification:Sans"
           transform="translate(0,-0.99999738)" />
        <rect
           transform="translate(0,-1)"
           clip-path="url(#clipPath4005)"
           y="647.07538"
           x="273.83896"
           height="17.299925"
           width="68.659081"
           id="rect4005"
           style="color:#000000;fill:#000000;fill-opacity:0.58823529;fill-rule:nonzero;stroke:none;stroke-width:3;marker:none;visibility:visible;display:inline;overflow:visible;enable-background:accumulate" />
      </g>
      <g
         transform="translate(-215.40472,-370.48817)"
         style="display:inline"
         inkscape:label="Verre"
         id="layer5">
        <path
           style="color:#000000;fill:#ec9700;fill-opacity:1;stroke:none;stroke-width:0.99999994px;marker:none;visibility:visible;display:inline;overflow:visible;enable-background:accumulate"
           clip-path="none"
           d="m 339.25039,584.89289 c 9.54912,-2.55104 14.82047,-4.28444 15.42047,-21.16693 1.08337,-30.48329 46.26142,-61.33762 46.26142,-101.67874 0,-61.35647 -49.31754,-91.55905 -92.76378,-91.55905 -43.44624,0 -92.76378,30.20258 -92.76378,91.55905 0,40.34112 45.17805,71.19545 46.26142,101.67874 0.6,16.88249 5.87135,18.61589 15.42047,21.16693 7.0477,1.88278 20.71006,2.44567 31.08189,2.44567 10.37183,0 24.03419,-0.56289 31.08189,-2.44567 z"
           id="path3008-2"
           inkscape:connector-curvature="0"
           sodipodi:nodetypes="ssscssscs" />
        <path
           transform="matrix(0.8805949,0,0,0.93893652,36.796891,30.011636)"
           sodipodi:nodetypes="ssscssscs"
           inkscape:connector-curvature="0"
           id="path3856"
           d="m 339.25039,584.89289 c 9.54912,-2.55104 14.82047,-4.28444 15.42047,-21.16693 1.08337,-30.48329 46.26142,-61.33762 46.26142,-101.67874 0,-61.35647 -49.31754,-91.55905 -92.76378,-91.55905 -43.44624,0 -92.76378,30.20258 -92.76378,91.55905 0,40.34112 45.17805,71.19545 46.26142,101.67874 0.6,16.88249 5.87135,18.61589 15.42047,21.16693 7.0477,1.88278 20.71006,2.44567 31.08189,2.44567 10.37183,0 24.03419,-0.56289 31.08189,-2.44567 z"
           style="color:#000000;fill:url(#linearGradient4132);fill-opacity:1;stroke:none;stroke-width:1.09974945px;marker:none;visibility:visible;display:inline;overflow:visible;filter:url(#filter3890);enable-background:accumulate"
           clip-path="none" />
        <path
           style="color:#000000;fill:#ffb30f;fill-opacity:0.56862745;fill-rule:nonzero;stroke:none;stroke-width:1.5;marker:none;visibility:visible;display:inline;overflow:visible;enable-background:accumulate"
           d="m 308.1685,384.12771 c -40.40938,0 -73.17309,39.64868 -73.17309,88.51004 0,27.1452 32.76371,49.14364 73.17309,49.14364 40.40941,0 73.17309,-21.99844 73.17309,-49.14364 0,-48.86136 -32.76368,-88.51004 -73.17309,-88.51004 z"
           id="path4001"
           inkscape:connector-curvature="0" />
        <path
           clip-path="none"
           style="color:#000000;fill:url(#linearGradient4134);fill-opacity:1;stroke:none;stroke-width:1.28185618px;marker:none;visibility:visible;display:inline;overflow:visible;filter:url(#filter3908);enable-background:accumulate"
           d="m 339.25039,584.89289 c 9.54912,-2.55104 14.82047,-4.28444 15.42047,-21.16693 1.08337,-30.48329 46.26142,-61.33762 46.26142,-101.67874 0,-61.35647 -49.31754,-91.55905 -92.76378,-91.55905 -43.44624,0 -92.76378,30.20258 -92.76378,91.55905 0,40.34112 45.17805,71.19545 46.26142,101.67874 0.6,16.88249 5.87135,18.61589 15.42047,21.16693 7.0477,1.88278 20.71006,2.44567 31.08189,2.44567 10.37183,0 24.03419,-0.56289 31.08189,-2.44567 z"
           id="path3894"
           inkscape:connector-curvature="0"
           sodipodi:nodetypes="ssscssscs"
           transform="matrix(0.78623415,0,0,0.8615538,65.8759,60.932218)" />
        <path
           inkscape:connector-curvature="0"
           id="path3987"
           d="m 308.1685,384.12771 c -20.34673,0 -36.84375,11.94114 -36.84375,26.6569 0,8.17542 16.49702,14.80077 36.84375,14.80077 20.34674,0 36.84375,-6.62535 36.84375,-14.80077 0,-14.71576 -16.49701,-26.6569 -36.84375,-26.6569 z"
           style="color:#000000;fill:url(#linearGradient4136);fill-opacity:1;fill-rule:nonzero;stroke:none;stroke-width:1.5;marker:none;visibility:visible;display:inline;overflow:visible;enable-background:accumulate" />
      </g>
      <g
         transform="translate(-215.40472,-370.48817)"
         style="display:inline"
         inkscape:label="Lumiere"
         id="layer6">
        <path
           inkscape:connector-curvature="0"
           id="path3929"
           d="m 308.1685,442.77883 c -15.68368,0 -29.95115,4.36124 -40.625,11.53125 11.5757,-4.76771 25.54745,-7.53125 40.625,-7.53125 15.04948,0 29.03061,2.74852 40.59375,7.5 -10.66951,-7.15414 -24.9296,-11.5 -40.59375,-11.5 z"
           style="color:#000000;fill:#ffffff;fill-opacity:1;fill-rule:nonzero;stroke:#ffffff;stroke-width:8.89999962;stroke-miterlimit:4;stroke-dasharray:none;marker:none;visibility:visible;display:inline;overflow:visible;filter:url(#filter4301);enable-background:accumulate" />
        <path
           inkscape:connector-curvature="0"
           d="m 328.0482,448.16991 -14.27586,46.03168 m 35.02116,-39.89151 -29.02116,75.55356 0,49.70541 m -31.48354,-131.39914 14.27586,46.03168 m -35.02116,-39.89151 29.02116,75.55356 0,49.70541"
           style="opacity:0.42652331;fill:none;stroke:#000000;stroke-width:1px;stroke-linecap:butt;stroke-linejoin:miter;stroke-opacity:0.25098039;filter:url(#filter4109)"
           id="path4029" />
        <path
           sodipodi:nodetypes="czssccsscssccsszc"
           inkscape:connector-curvature="0"
           id="path4125"
           d="m 295.49924,559.28304 c 0,0 -5.27975,-20.62549 -5.32616,-23.94344 -0.0464,-3.31795 2.05326,-5.76012 4.96497,-5.76012 4.12469,0 4.46447,3.89219 6.45284,3.89219 1.40606,0 0.82721,-3.89141 3,-5.61984 0,-8.88146 0,-17.76292 0,-26.64438 0,0 -3.24872,-0.30727 -4.38005,-0.30727 -1.88567,0 -2.25363,-7.0674 0.10242,-7.0674 2.48471,0 7.88681,-0.10243 7.88681,-0.10243 0,0 5.4021,0.10243 7.88681,0.10243 2.35605,0 1.98809,7.0674 0.10242,7.0674 -1.13133,0 -4.38005,0.30727 -4.38005,0.30727 0,8.88146 0,17.76292 0,26.64438 2.17279,1.72843 1.59394,5.61984 3,5.61984 1.98837,0 2.32815,-3.89219 6.45284,-3.89219 2.91171,0 5.01137,2.44217 4.96497,5.76012 -0.0464,3.31795 -5.32616,23.94344 -5.32616,23.94344"
           style="opacity:0.69910398;color:#000000;fill:url(#linearGradient4138);fill-opacity:1;fill-rule:nonzero;stroke:#000000;stroke-width:1px;stroke-opacity:0.16470588;marker:none;visibility:visible;display:inline;overflow:visible;filter:url(#filter4295);enable-background:accumulate" />
        <path
           sodipodi:nodetypes="csscssc"
           inkscape:connector-curvature="0"
           id="path4123-3"
           d="m 325.50956,586.70922 0,-21.67254 c 0,-3.21813 -2.35411,-5.62054 -5.44274,-5.62054 -2.85875,0 -11.86675,0 -11.86675,0 0,0 -9.008,0 -11.86675,0 -3.08863,0 -5.44274,2.40241 -5.44274,5.62054 l 0,21.67254"
           style="opacity:0.734767;fill:url(#linearGradient4140);fill-opacity:1;stroke:#000000;stroke-opacity:0.09803922;display:inline;filter:url(#filter4267)" />
        <path
           style="opacity:0.8064516;color:#000000;fill:#ffffff;fill-opacity:1;fill-rule:nonzero;stroke:#ffffff;stroke-width:1.5;stroke-miterlimit:4;stroke-dasharray:none;marker:none;visibility:visible;display:inline;overflow:visible;filter:url(#filter4317);enable-background:accumulate"
           d="m 308.1685,442.77883 c -15.68368,0 -29.95115,4.36124 -40.625,11.53125 11.5757,-4.76771 25.54745,-7.53125 40.625,-7.53125 15.04948,0 29.03061,2.74852 40.59375,7.5 -10.66951,-7.15414 -24.9296,-11.5 -40.59375,-11.5 z"
           id="path4299"
           inkscape:connector-curvature="0" />
      </g>
    </g>
    <path
       style="font-size:medium;font-style:normal;font-variant:normal;font-weight:normal;font-stretch:normal;text-indent:0;text-align:start;text-decoration:none;line-height:normal;letter-spacing:normal;word-spacing:normal;text-transform:none;direction:ltr;block-progression:tb;writing-mode:lr-tb;text-anchor:start;baseline-shift:baseline;color:#000000;fill:#ec9700;fill-opacity:1;stroke:none;stroke-width:2;marker:none;visibility:visible;display:inline;overflow:visible;enable-background:accumulate;font-family:Sans;-inkscape-font-specification:Sans"
       d="M 2.65625 1.28125 L 1.65625 3 L 4.875 4.875 C 5.1663153 4.2674934 5.4916877 3.7038858 5.875 3.15625 L 2.65625 1.28125 z M 29.34375 1.28125 L 26 3.21875 C 26.378173 3.7676286 26.713603 4.3292864 27 4.9375 L 30.34375 3 L 29.34375 1.28125 z M 0 9.125 L 0 11.125 L 3.71875 11.125 C 3.6933123 10.803457 3.65625 10.484143 3.65625 10.15625 C 3.65625 9.8072658 3.6899708 9.4667552 3.71875 9.125 L 0 9.125 z M 28.125 9.125 C 28.153621 9.4667552 28.1875 9.8072658 28.1875 10.15625 C 28.1875 10.484143 28.150298 10.803457 28.125 11.125 L 32 11.125 L 32 9.125 L 28.125 9.125 z M 27.03125 15.34375 C 26.743524 15.960288 26.413085 16.537798 26.03125 17.09375 L 29.34375 19 L 30.34375 17.28125 L 27.03125 15.34375 z M 4.875 15.40625 L 1.65625 17.28125 L 2.65625 19 L 5.84375 17.15625 C 5.4594034 16.605405 5.1663513 16.017419 4.875 15.40625 z "
       id="path4142"
       transform="translate(0,1020.3622)" />
  </g>
  <g
     inkscape:label="Coin"
     id="g3800"
     inkscape:groupmode="layer"
     style="display:inline" />
</svg>
